<?xml version="1.0"?><svg width="150px" height="50px" xmlns="http://www.w3.org/2000/svg" xmlns:xlink="http://www.w3.org/1999/xlink"> <polyline fill="none" stroke="#4fc280" stroke-width="1.5px" stroke-linecap="round" stroke-miterlimit="5" points="0.00,40.10 0.22,38.55 0.45,39.17 0.67,38.86 0.89,39.14 1.12,39.18 1.34,38.92 1.56,38.04 1.79,38.22 1.94,38.51 2.16,38.11 2.38,38.53 2.61,38.21 2.83,39.13 3.05,40.29 3.28,41.15 3.50,42.61 3.65,41.74 3.87,42.48 4.09,41.34 4.32,41.10 4.54,40.71 4.76,40.19 4.99,41.74 5.21,41.92 5.36,42.85 5.58,41.97 5.81,41.36 6.03,41.69 6.25,40.42 6.48,39.37 6.70,39.64 6.92,39.69 7.07,39.40 7.30,38.24 7.52,38.49 7.74,37.59 7.97,37.61 8.19,38.39 8.41,37.71 8.64,39.62 8.78,39.47 9.01,39.54 9.23,39.20 9.45,39.73 9.68,38.77 9.90,38.33 10.12,37.25 10.35,38.79 10.50,37.04 10.72,37.19 10.94,35.74 11.17,30.05 11.39,29.36 11.61,30.57 11.84,29.27 12.06,33.95 12.21,33.09 12.43,33.47 12.66,36.91 12.88,32.93 13.10,31.09 13.33,32.98 13.55,34.51 13.77,33.00 13.92,33.39 14.14,34.47 14.37,34.11 14.59,33.83 14.81,34.25 15.04,33.84 15.26,34.56 15.48,35.31 15.63,35.54 15.86,32.00 16.08,32.17 16.30,34.35 16.53,32.08 16.75,32.18 16.97,32.53 17.20,32.06 17.42,33.41 17.57,35.23 17.79,38.77 18.01,36.32 18.24,35.60 18.46,35.42 18.68,35.33 18.91,34.03 19.13,33.73 19.28,33.57 19.50,34.01 19.73,33.39 19.95,32.77 20.17,32.95 20.40,30.80 20.62,29.95 20.84,28.99 20.99,29.56 21.22,30.42 21.44,31.03 21.66,30.59 21.89,31.05 22.11,30.30 22.33,30.06 22.56,29.15 22.70,29.70 22.93,28.77 23.15,29.73 23.37,30.13 23.60,30.60 23.82,30.93 24.04,31.26 24.27,31.47 24.42,30.84 24.64,30.82 24.86,30.29 25.09,30.19 25.31,30.13 25.53,29.83 25.76,31.84 25.98,33.04 26.13,32.78 26.35,34.24 26.58,35.05 26.80,34.09 27.02,34.57 27.25,34.61 27.47,34.20 27.69,35.24 27.84,36.91 28.06,36.28 28.29,35.47 28.51,36.13 28.73,35.24 28.96,35.39 29.18,34.44 29.40,33.35 29.55,33.84 29.78,33.42 30.00,32.99 30.22,34.21 30.45,33.56 30.67,32.96 30.89,31.06 31.12,31.20 31.27,30.96 31.49,30.55 31.71,32.24 31.94,32.17 32.16,33.44 32.38,36.19 32.61,35.26 32.83,36.41 33.05,39.77 33.20,42.92 33.42,41.54 33.65,42.05 33.87,42.07 34.09,38.17 34.32,38.70 34.54,39.51 34.76,40.29 34.91,41.34 35.14,41.64 35.36,43.48 35.58,42.12 35.81,42.75 36.03,41.27 36.25,42.19 36.48,41.10 36.63,41.39 36.85,40.99 37.07,41.93 37.30,42.45 37.52,43.86 37.74,42.11 37.97,41.47 38.19,41.41 38.34,41.09 38.56,40.93 38.78,40.09 39.01,39.42 39.23,39.47 39.45,39.94 39.68,39.91 39.90,39.97 40.05,39.50 40.27,39.24 40.50,38.61 40.72,37.85 40.94,37.26 41.17,37.73 41.39,37.71 41.61,37.84 41.76,37.60 41.98,38.69 42.21,39.10 42.43,39.42 42.65,40.83 42.88,39.89 43.10,39.07 43.32,40.01 43.47,39.97 43.70,39.66 43.92,40.05 44.14,40.04 44.37,39.73 44.59,39.02 44.81,39.58 45.04,39.61 45.19,39.80 45.41,38.86 45.63,39.29 45.86,40.34 46.08,40.75 46.30,40.58 46.53,40.27 46.75,40.33 46.90,39.99 47.12,39.85 47.34,39.87 47.57,39.36 47.79,38.98 48.01,38.55 48.24,39.21 48.46,40.16 48.68,41.10 48.83,41.44 49.06,42.18 49.28,42.37 49.50,42.04 49.73,41.63 49.95,42.05 50.17,42.34 50.40,43.24 50.55,42.14 50.77,42.04 50.99,41.53 51.22,40.92 51.44,40.58 51.66,40.95 51.89,41.15 52.11,41.37 52.26,41.98 52.48,40.38 52.70,41.27 52.93,42.86 53.15,45.98 53.37,46.50 53.60,46.49 53.82,46.13 53.97,47.20 54.19,50.00 54.42,48.31 54.64,49.08 54.86,46.97 55.09,45.48 55.31,45.70 55.53,46.75 55.68,47.23 55.91,46.26 56.13,45.60 56.35,44.42 56.58,44.00 56.80,43.82 57.02,43.96 57.25,43.71 57.39,43.36 57.62,43.15 57.84,43.35 58.06,43.39 58.29,42.29 58.51,42.39 58.73,42.75 58.96,42.36 59.11,42.40 59.33,41.82 59.55,41.92 59.78,41.45 60.00,41.70 60.22,39.50 60.45,39.05 60.67,40.29 60.82,40.68 61.04,40.18 61.27,40.75 61.49,41.07 61.71,40.79 61.94,40.95 62.16,40.20 62.38,40.10 62.53,40.34 62.75,39.87 62.98,40.66 63.20,40.97 63.42,38.99 63.65,39.04 63.87,39.91 64.09,41.06 64.24,41.36 64.47,41.99 64.69,41.73 64.91,42.49 65.14,42.85 65.36,42.50 65.58,42.17 65.81,41.07 66.03,41.00 66.18,40.11 66.40,39.35 66.63,38.65 66.85,38.62 67.07,38.60 67.30,37.83 67.52,37.55 67.74,37.70 67.89,37.16 68.11,38.96 68.34,40.38 68.56,41.43 68.78,40.64 69.01,38.77 69.23,37.41 69.45,37.41 69.60,37.95 69.83,38.38 70.05,37.71 70.27,37.82 70.50,37.11 70.72,35.30 70.94,35.51 71.17,35.39 71.31,35.16 71.54,34.93 71.76,36.01 71.98,36.13 72.21,36.39 72.43,36.69 72.65,37.46 72.88,37.43 73.03,37.47 73.25,37.68 73.47,36.74 73.70,38.18 73.92,38.40 74.14,38.53 74.37,39.49 74.59,39.29 74.74,39.46 74.96,40.03 75.19,39.63 75.41,38.58 75.63,36.76 75.86,36.29 76.08,37.44 76.30,37.28 76.45,37.29 76.67,36.65 76.90,36.97 77.12,38.63 77.34,38.10 77.57,37.57 77.79,35.17 78.01,34.72 78.16,34.42 78.39,36.20 78.61,36.30 78.83,35.53 79.06,34.78 79.28,33.37 79.50,32.83 79.73,33.96 79.88,31.27 80.10,32.02 80.32,32.91 80.55,33.95 80.77,34.29 80.99,33.29 81.22,33.27 81.44,33.25 81.66,33.44 81.81,32.30 82.03,30.25 82.26,28.93 82.48,24.29 82.70,22.27 82.93,23.99 83.15,22.79 83.37,22.72 83.52,26.28 83.75,25.65 83.97,24.51 84.19,25.11 84.42,24.42 84.64,25.74 84.86,27.15 85.09,26.89 85.24,27.02 85.46,27.28 85.68,26.71 85.91,24.84 86.13,23.40 86.35,23.56 86.58,23.91 86.80,23.23 86.95,24.21 87.17,24.82 87.39,23.58 87.62,23.53 87.84,22.37 88.06,22.39 88.29,22.36 88.51,23.66 88.66,22.57 88.88,22.14 89.11,22.78 89.33,18.41 89.55,16.46 89.78,16.85 90.00,17.28 90.22,17.53 90.37,16.87 90.60,16.26 90.82,17.27 91.04,16.52 91.27,17.51 91.49,17.87 91.71,18.78 91.94,19.91 92.08,19.81 92.31,18.53 92.53,18.32 92.75,19.04 92.98,18.97 93.20,19.77 93.42,19.45 93.65,18.85 93.80,18.87 94.02,19.95 94.24,18.48 94.47,18.76 94.69,19.51 94.91,19.32 95.14,19.53 95.36,18.62 95.51,19.88 95.73,19.43 95.96,20.19 96.18,21.01 96.40,21.84 96.62,21.06 96.85,21.57 97.07,20.67 97.29,20.86 97.44,20.37 97.67,18.52 97.89,19.90 98.11,20.39 98.34,19.40 98.56,18.03 98.78,17.97 99.01,21.00 99.16,20.61 99.38,19.77 99.60,15.54 99.83,16.20 100.05,12.86 100.27,13.06 100.50,14.59 100.72,15.34 100.87,15.35 101.09,17.29 101.31,16.47 101.54,15.03 101.76,15.18 101.98,15.57 102.21,14.77 102.43,15.06 102.58,14.41 102.80,13.82 103.03,13.32 103.25,13.40 103.47,10.77 103.70,7.82 103.92,8.10 104.14,9.20 104.29,10.30 104.52,11.29 104.74,11.07 104.96,12.30 105.19,13.65 105.41,12.65 105.63,12.53 105.86,12.17 106.00,15.40 106.23,15.18 106.45,14.05 106.67,18.31 106.90,17.47 107.12,17.32 107.34,17.56 107.57,17.46 107.72,17.47 107.94,17.14 108.16,17.14 108.39,18.37 108.61,17.40 108.83,18.96 109.06,18.79 109.28,17.88 109.43,17.65 109.65,16.97 109.88,17.13 110.10,16.37 110.32,16.08 110.55,16.91 110.77,16.63 110.99,15.59 111.14,15.72 111.36,15.45 111.59,15.90 111.81,16.01 112.03,16.15 112.26,17.19 112.48,17.56 112.70,18.13 112.93,19.13 113.08,18.16 113.30,18.48 113.52,18.59 113.75,21.16 113.97,21.71 114.19,21.36 114.42,19.23 114.64,19.76 114.79,17.83 115.01,18.36 115.24,16.42 115.46,16.26 115.68,14.77 115.91,15.91 116.13,14.97 116.35,14.97 116.50,12.91 116.72,14.52 116.95,15.68 117.17,11.10 117.39,9.39 117.62,4.92 117.84,4.72 118.06,8.89 118.21,11.57 118.44,13.78 118.66,14.47 118.88,16.48 119.11,15.34 119.33,17.89 119.55,16.97 119.78,16.03 119.93,16.76 120.15,16.30 120.37,18.57 120.60,20.40 120.82,19.03 121.04,20.13 121.27,19.75 121.49,18.27 121.64,19.03 121.86,18.26 122.08,16.09 122.31,16.12 122.53,14.95 122.75,12.28 122.98,11.05 123.20,6.58 123.35,7.27 123.57,8.96 123.80,8.60 124.02,8.24 124.24,7.54 124.47,5.84 124.69,5.20 124.91,5.55 125.06,5.75 125.28,5.79 125.51,6.11 125.73,4.63 125.95,2.14 126.18,0.00 126.40,1.76 126.62,1.57 126.77,1.42 127.00,1.80 127.22,2.61 127.44,3.11 127.67,3.37 127.89,3.52 128.11,4.84 128.34,5.36 128.49,4.65 128.71,4.79 128.93,4.68 129.16,3.20 129.38,2.77 129.60,2.77 129.83,2.75 130.05,3.12 130.27,2.36 130.42,2.94 130.64,2.83 130.87,4.99 131.09,5.13 131.31,3.39 131.54,3.32 131.76,4.78 131.98,7.84 132.13,7.92 132.36,7.88 132.58,8.59 132.80,10.51 133.03,12.48 133.25,15.52 133.47,13.99 133.70,14.89 133.85,14.07 134.07,13.39 134.29,13.00 134.52,13.21 134.74,12.78 134.96,17.64 135.19,17.13 135.41,19.10 135.56,18.64 135.78,20.36 136.00,18.85 136.23,18.57 136.45,18.04 136.67,17.39 136.90,17.90 137.12,19.73 137.27,20.23 137.49,21.17 137.72,20.38 137.94,17.70 138.16,17.04 138.39,17.57 138.61,16.85 138.83,19.82 138.98,20.89 139.21,21.52 139.43,20.16 139.65,22.73 139.88,22.55 140.10,22.70 140.32,23.26 140.55,18.78 140.69,19.04 140.92,18.42 141.14,19.01 141.36,17.67 141.59,19.43 141.81,15.49 142.03,16.09 142.26,17.35 142.41,18.27 142.63,20.79 142.85,21.38 143.08,20.02 143.30,22.82 143.52,20.85 143.75,20.99 143.97,20.02 144.12,19.92 144.34,21.12 144.57,19.25 144.79,18.73 145.01,19.79 145.24,20.20 145.46,20.32 145.68,18.90 145.91,19.21 146.05,17.70 146.28,17.50 146.50,17.23 146.72,17.99 146.95,16.82 147.17,16.21 147.39,13.14 147.62,12.50 147.77,12.46 147.99,8.68 148.21,9.24 148.44,11.08 148.66,11.86 148.88,13.55 149.11,14.11 149.33,13.27 149.48,14.38 149.70,17.19 149.93,19.85 150.00,18.98 "/></svg>