<?xml version="1.0"?><svg width="150px" height="50px" xmlns="http://www.w3.org/2000/svg" xmlns:xlink="http://www.w3.org/1999/xlink"> <polyline fill="none" stroke="#d6455d" stroke-width="1.5px" stroke-linecap="round" stroke-miterlimit="5" points="0.00,31.14 0.22,30.11 0.45,30.39 0.67,29.90 0.89,29.50 1.12,29.74 1.34,29.20 1.56,26.32 1.79,25.94 1.94,26.68 2.16,26.75 2.38,27.19 2.61,27.59 2.83,27.88 3.05,28.59 3.28,28.88 3.50,31.71 3.65,30.56 3.87,29.54 4.09,28.22 4.32,25.79 4.54,24.09 4.76,24.94 4.99,26.30 5.21,26.28 5.36,26.33 5.58,26.55 5.81,25.97 6.03,27.09 6.25,26.73 6.48,25.74 6.70,25.08 6.92,24.51 7.07,26.06 7.29,25.10 7.52,25.91 7.74,25.01 7.96,24.61 8.19,23.85 8.41,24.85 8.63,25.94 8.78,22.42 9.01,20.76 9.23,18.85 9.45,19.62 9.68,18.64 9.90,20.60 10.12,21.25 10.35,22.87 10.50,21.63 10.72,20.17 10.94,18.32 11.17,18.33 11.39,18.47 11.61,18.06 11.84,19.06 12.06,22.62 12.21,21.72 12.43,22.37 12.65,25.86 12.88,22.40 13.10,21.98 13.32,22.98 13.55,21.63 13.77,20.22 13.92,19.16 14.14,19.79 14.37,20.18 14.59,19.78 14.81,19.13 15.04,19.50 15.26,19.45 15.48,20.11 15.63,20.30 15.86,17.90 16.08,17.82 16.30,21.08 16.53,21.23 16.75,21.55 16.97,21.40 17.20,21.78 17.42,23.65 17.57,24.27 17.79,25.91 18.01,24.48 18.24,23.60 18.46,24.00 18.68,25.65 18.91,23.65 19.13,22.22 19.28,22.03 19.50,22.27 19.73,21.80 19.95,15.12 20.17,15.59 20.40,15.71 20.62,16.27 20.84,15.75 20.99,13.89 21.21,11.36 21.44,11.18 21.66,9.74 21.88,11.91 22.11,12.80 22.33,13.42 22.55,13.63 22.70,13.47 22.93,14.25 23.15,14.72 23.37,14.40 23.60,15.45 23.82,16.43 24.04,16.11 24.27,16.74 24.42,16.30 24.64,16.11 24.86,15.46 25.09,16.42 25.31,16.46 25.53,16.57 25.76,17.98 25.98,20.37 26.13,19.94 26.35,21.98 26.57,21.22 26.80,21.93 27.02,20.27 27.24,21.96 27.47,21.23 27.69,23.64 27.84,27.57 28.06,25.08 28.29,23.84 28.51,22.49 28.73,23.66 28.96,22.48 29.18,21.48 29.40,20.53 29.55,20.63 29.78,20.40 30.00,19.19 30.22,20.06 30.45,20.20 30.67,17.74 30.89,15.13 31.12,15.32 31.26,15.73 31.49,15.80 31.71,17.90 31.93,19.03 32.16,19.25 32.38,20.71 32.60,21.20 32.83,22.89 33.05,26.16 33.20,28.07 33.42,27.38 33.65,27.40 33.87,24.83 34.09,20.81 34.32,20.27 34.54,22.65 34.76,23.75 34.91,25.51 35.13,24.78 35.36,27.08 35.58,26.75 35.80,27.60 36.03,26.86 36.25,26.50 36.47,25.86 36.62,25.47 36.85,25.01 37.07,25.62 37.29,25.89 37.52,26.42 37.74,25.86 37.96,23.38 38.19,21.58 38.34,19.93 38.56,20.27 38.78,20.43 39.01,19.86 39.23,19.90 39.45,20.48 39.68,20.76 39.90,20.69 40.05,20.72 40.27,20.10 40.49,19.79 40.72,19.94 40.94,20.10 41.16,18.40 41.39,15.44 41.61,13.73 41.76,13.82 41.98,17.12 42.21,16.64 42.43,18.52 42.65,20.99 42.88,21.44 43.10,20.47 43.32,21.83 43.47,20.83 43.70,18.98 43.92,17.72 44.14,18.91 44.37,18.93 44.59,17.48 44.81,17.72 45.04,15.92 45.18,16.41 45.41,16.49 45.63,16.37 45.85,17.47 46.08,16.61 46.30,17.09 46.52,17.22 46.75,17.32 46.90,18.32 47.12,18.71 47.34,18.69 47.57,18.33 47.79,18.85 48.01,18.04 48.24,17.08 48.46,18.54 48.68,20.14 48.83,21.05 49.05,20.87 49.28,21.99 49.50,23.63 49.72,23.14 49.95,24.52 50.17,25.44 50.39,27.31 50.54,26.28 50.77,26.21 50.99,25.01 51.21,24.64 51.44,24.44 51.66,24.78 51.88,25.63 52.11,26.38 52.26,26.50 52.48,27.48 52.70,27.51 52.93,29.67 53.15,32.83 53.37,34.05 53.60,34.18 53.82,34.59 53.97,34.23 54.19,39.28 54.41,38.79 54.64,38.46 54.86,36.68 55.08,35.23 55.31,35.11 55.53,33.25 55.68,33.07 55.90,32.04 56.13,31.48 56.35,30.18 56.57,29.36 56.80,29.95 57.02,30.14 57.24,30.57 57.39,30.32 57.62,30.37 57.84,29.93 58.06,30.40 58.29,29.13 58.51,29.19 58.73,29.99 58.95,29.10 59.10,29.01 59.33,28.98 59.55,27.70 59.77,27.94 60.00,27.53 60.22,25.58 60.44,24.78 60.67,26.11 60.82,26.19 61.04,25.70 61.26,25.87 61.49,26.56 61.71,26.64 61.93,27.64 62.16,27.51 62.38,26.94 62.53,27.54 62.75,27.44 62.97,28.09 63.20,29.44 63.42,27.39 63.64,27.23 63.87,27.58 64.09,28.97 64.24,30.26 64.46,30.99 64.69,27.98 64.91,26.30 65.13,28.06 65.36,29.14 65.58,28.45 65.80,28.39 66.03,27.96 66.18,25.91 66.40,26.46 66.62,26.01 66.85,26.29 67.07,25.85 67.29,25.53 67.52,23.66 67.74,23.84 67.89,21.55 68.11,20.48 68.33,22.24 68.56,25.02 68.78,24.73 69.00,22.25 69.23,21.77 69.45,21.29 69.60,21.94 69.82,21.77 70.05,21.16 70.27,20.36 70.49,20.71 70.72,18.23 70.94,18.82 71.16,19.03 71.31,18.78 71.54,17.88 71.76,16.73 71.98,16.41 72.20,15.31 72.43,13.72 72.65,13.57 72.87,13.21 73.02,10.70 73.25,11.07 73.47,10.45 73.69,11.96 73.92,12.10 74.14,14.75 74.36,15.16 74.59,15.14 74.74,16.16 74.96,15.69 75.18,15.26 75.41,15.22 75.63,12.31 75.85,12.76 76.08,14.03 76.30,13.65 76.45,13.66 76.67,11.11 76.89,12.22 77.12,14.23 77.34,14.41 77.56,13.42 77.79,12.84 78.01,13.25 78.16,13.36 78.38,14.26 78.61,14.12 78.83,13.68 79.05,12.90 79.28,14.41 79.50,13.48 79.72,13.14 79.87,13.17 80.10,15.75 80.32,15.38 80.54,16.87 80.77,18.52 80.99,18.01 81.21,18.06 81.44,18.68 81.66,18.04 81.81,15.95 82.03,15.36 82.25,15.41 82.48,13.05 82.70,12.35 82.92,12.62 83.15,12.12 83.37,12.65 83.52,14.43 83.74,15.37 83.97,15.32 84.19,15.77 84.41,14.26 84.64,13.64 84.86,14.50 85.08,15.02 85.23,15.55 85.45,16.52 85.68,15.47 85.90,15.14 86.12,14.15 86.35,12.93 86.57,12.12 86.79,12.09 86.94,11.30 87.17,13.13 87.39,12.81 87.61,12.53 87.84,11.79 88.06,11.16 88.28,11.25 88.51,12.21 88.66,12.56 88.88,11.57 89.10,13.13 89.33,11.26 89.55,8.82 89.77,9.03 90.00,9.46 90.22,9.27 90.37,9.20 90.59,9.14 90.81,8.71 91.04,7.63 91.26,8.62 91.48,10.09 91.71,12.73 91.93,14.18 92.08,13.24 92.30,11.16 92.53,10.03 92.75,9.99 92.97,11.58 93.20,14.53 93.42,15.28 93.64,15.50 93.79,15.18 94.02,15.14 94.24,14.19 94.46,14.20 94.69,15.45 94.91,13.90 95.13,14.09 95.36,14.07 95.50,14.89 95.73,14.25 95.95,14.83 96.17,15.34 96.40,15.73 96.62,16.96 96.84,18.07 97.07,17.43 97.29,17.24 97.44,17.21 97.66,14.01 97.89,14.80 98.11,14.52 98.33,14.29 98.56,13.07 98.78,11.06 99.00,14.15 99.15,15.92 99.37,15.66 99.60,14.00 99.82,12.61 100.04,11.10 100.27,11.18 100.49,13.34 100.71,12.81 100.86,13.23 101.09,14.08 101.31,12.30 101.53,11.92 101.76,11.35 101.98,12.21 102.20,11.78 102.43,11.76 102.58,11.07 102.80,10.51 103.02,10.39 103.25,10.61 103.47,8.77 103.69,6.88 103.92,3.72 104.14,5.66 104.29,4.44 104.51,3.76 104.73,0.00 104.96,0.53 105.18,4.68 105.40,0.34 105.63,2.37 105.85,5.15 106.00,8.18 106.22,9.60 106.45,9.71 106.67,14.66 106.89,14.87 107.12,13.24 107.34,13.32 107.56,12.50 107.71,11.97 107.94,11.10 108.16,11.52 108.38,13.35 108.61,13.05 108.83,15.07 109.05,16.96 109.28,16.15 109.42,14.85 109.65,13.35 109.87,12.43 110.09,11.09 110.32,9.35 110.54,8.30 110.76,8.89 110.99,7.47 111.14,7.47 111.36,7.84 111.58,8.08 111.81,8.44 112.03,8.69 112.25,7.85 112.48,9.87 112.70,12.15 112.92,14.64 113.07,12.90 113.29,12.36 113.52,12.20 113.74,15.35 113.96,16.12 114.19,18.34 114.41,15.32 114.63,13.96 114.78,12.26 115.01,12.53 115.23,11.81 115.45,12.41 115.68,11.95 115.90,12.34 116.12,8.60 116.35,8.05 116.50,8.38 116.72,9.81 116.94,10.75 117.17,9.13 117.39,7.79 117.61,5.25 117.84,4.10 118.06,6.12 118.21,9.76 118.43,15.29 118.65,15.86 118.88,20.44 119.10,21.81 119.32,28.15 119.55,25.15 119.77,24.06 119.92,23.91 120.14,24.32 120.37,26.38 120.59,27.60 120.81,25.67 121.04,26.46 121.26,24.99 121.48,24.58 121.63,22.77 121.86,23.35 122.08,22.09 122.30,22.01 122.53,23.14 122.75,22.01 122.97,20.58 123.20,18.47 123.34,16.41 123.57,16.51 123.79,17.61 124.01,19.19 124.24,18.85 124.46,18.49 124.68,17.68 124.91,16.71 125.06,16.33 125.28,13.89 125.50,13.10 125.73,12.82 125.95,12.30 126.17,11.48 126.40,14.42 126.62,15.04 126.77,15.91 126.99,16.43 127.21,16.78 127.44,18.73 127.66,19.40 127.88,18.92 128.11,20.09 128.33,22.37 128.48,22.91 128.70,22.91 128.93,24.22 129.15,23.90 129.37,24.09 129.60,23.88 129.82,22.80 130.04,23.67 130.27,23.39 130.42,23.95 130.64,24.28 130.86,26.02 131.09,26.65 131.31,25.44 131.53,25.05 131.76,26.21 131.98,28.45 132.13,28.44 132.35,28.87 132.57,28.86 132.80,30.84 133.02,31.32 133.24,33.98 133.47,31.48 133.69,31.66 133.84,32.91 134.06,32.61 134.29,32.60 134.51,31.54 134.73,31.59 134.96,33.05 135.18,34.57 135.40,38.38 135.55,39.62 135.78,40.36 136.00,41.72 136.22,40.82 136.45,41.19 136.67,39.94 136.89,40.32 137.12,41.22 137.26,41.93 137.49,44.17 137.71,41.70 137.93,39.62 138.16,38.31 138.38,39.43 138.60,37.92 138.83,40.32 138.98,41.24 139.20,42.72 139.42,42.41 139.65,46.19 139.87,46.02 140.09,45.49 140.32,46.68 140.54,43.29 140.69,42.17 140.91,43.45 141.13,42.33 141.36,41.91 141.58,44.52 141.80,41.38 142.03,41.36 142.25,42.16 142.40,42.90 142.62,45.74 142.85,47.06 143.07,47.06 143.29,50.00 143.52,47.85 143.74,48.19 143.96,45.65 144.11,46.12 144.34,47.02 144.56,45.72 144.78,45.57 145.01,45.70 145.23,45.54 145.45,46.53 145.68,45.21 145.90,44.93 146.05,42.85 146.27,41.18 146.49,40.16 146.72,41.36 146.94,40.02 147.16,39.16 147.39,37.84 147.61,36.29 147.76,36.75 147.98,36.18 148.21,36.43 148.43,37.53 148.65,38.80 148.88,40.02 149.10,40.15 149.32,39.64 149.47,40.61 149.70,43.21 149.92,45.25 150.00,45.33 "/></svg>